<svg width="148" height="43" viewBox="0 0 148 43" fill="none" xmlns="http://www.w3.org/2000/svg">
<g clip-path="url(#clip0_18_8)">
<path d="M67.2239 14.611C67.2883 15.6517 68.0615 16.1095 69.0065 16.1095C69.8656 16.1095 70.4025 15.7765 70.4025 15.2146C70.4025 14.7151 69.9945 14.5069 69.2642 14.3821L67.9541 14.1531C66.8803 13.9658 66.15 13.383 66.15 12.3007C66.15 11.0519 67.1595 10.2402 68.7703 10.2402C70.5744 10.2402 71.5838 11.1352 71.6053 12.6129L70.3596 12.6546C70.3166 11.7388 69.7153 11.2601 68.7703 11.2601C67.9541 11.2601 67.5031 11.6139 67.5031 12.1759C67.5031 12.6546 67.8682 12.8211 68.4911 12.9459L69.7582 13.1749C71.1113 13.4246 71.7341 14.049 71.7341 15.1105C71.7341 16.4217 70.5743 17.1294 69.028 17.1294C67.2668 17.1294 65.9782 16.2344 65.9782 14.6318L67.2239 14.611Z" fill="#EFEDE8"/>
<path d="M72.6147 14.4443V10.3857H73.9678V14.3194C73.9678 15.4642 74.4617 16.0677 75.5571 16.0677C76.6524 16.0677 77.1464 15.485 77.1464 14.3402V10.3857H78.4995V14.4651C78.4995 16.4007 77.1894 17.1916 75.5356 17.1916C73.9033 17.1708 72.6147 16.4007 72.6147 14.4443Z" fill="#EFEDE8"/>
<path d="M84.1265 17.046L81.7211 14.1321L81.0123 14.8398V17.046H79.6592V10.3857H81.0123V13.4037L83.9547 10.3857H85.544L82.7305 13.2788L85.7802 17.046H84.1265Z" fill="#EFEDE8"/>
<path d="M86.3172 17.046V10.3857H87.6703V13.1123H91.0637V10.3857H92.4168V17.046H91.0637V14.1945H87.6703V17.046H86.3172Z" fill="#EFEDE8"/>
<path d="M94.994 10.3857V17.046H93.641V10.3857H94.994V10.3857Z" fill="#EFEDE8"/>
<path d="M97.5713 10.3857V17.046H96.2182V10.3857H97.5713V10.3857Z" fill="#EFEDE8"/>
<path d="M66.9447 29.6177V23.1239C66.9447 22.6036 67.2239 22.1249 67.6749 21.8335L68.3837 21.3756C68.5985 21.23 68.8991 21.3965 68.8991 21.6462V29.6385C68.8991 32.2817 70.2522 33.593 72.7436 33.593C75.2564 33.593 76.631 32.2817 76.631 29.6593V23.1031C76.631 22.5828 76.8887 22.1041 77.3397 21.8127L78.027 21.3756C78.2418 21.23 78.5424 21.3965 78.5424 21.6462V29.6177C78.5424 33.6762 75.9437 35.1956 72.7221 35.1956C69.5005 35.1956 66.9447 33.6762 66.9447 29.6177Z" fill="#EFEDE8"/>
<path d="M87.2407 34.9247H81.6352C81.3774 34.9247 81.1412 34.7165 81.1412 34.446V21.5002C81.1412 21.2504 81.356 21.0215 81.6352 21.0215H87.0045C90.5482 21.0215 92.0087 22.52 92.0087 24.7262C92.0087 26.3288 90.8274 27.4319 89.3026 27.7025C91.0637 27.9939 92.4168 29.1178 92.4168 31.0951C92.4168 33.5094 90.5912 34.9247 87.2407 34.9247ZM83.0527 26.5578C83.0527 26.8075 83.2674 27.0365 83.5466 27.0365H87.0689C89.1307 27.0365 90.0328 26.1831 90.0328 24.8303C90.0328 23.4983 89.1522 22.6033 87.0689 22.6033H83.5466C83.2889 22.6033 83.0527 22.8114 83.0527 23.082V26.5578ZM83.0527 28.9929V32.885C83.0527 33.1347 83.2674 33.3637 83.5466 33.3637H87.1978C89.3455 33.3637 90.4623 32.4687 90.4623 30.9702C90.4623 29.4508 89.3455 28.5142 87.1978 28.5142H83.5466C83.2674 28.5142 83.0527 28.7224 83.0527 28.9929Z" fill="#EFEDE8"/>
<path d="M118.512 31.657V21.5002C118.512 21.2504 118.726 21.0215 119.006 21.0215H119.886C120.144 21.0215 120.38 21.2296 120.38 21.5002V34.446C120.38 34.6957 120.165 34.9247 119.886 34.9247H119.049C118.898 34.9247 118.748 34.8622 118.662 34.7374L110.479 23.7688V34.4668C110.479 34.7165 110.264 34.9455 109.985 34.9455H109.105C108.847 34.9455 108.611 34.7374 108.611 34.4668V21.521C108.611 21.2712 108.825 21.0423 109.105 21.0423H110.415C110.565 21.0423 110.715 21.1256 110.801 21.2296L118.512 31.657Z" fill="#EFEDE8"/>
<path d="M127.425 34.4668V22.6241H122.7C122.442 22.6241 122.206 22.416 122.206 22.1454V21.5002C122.206 21.2504 122.421 21.0215 122.7 21.0215H134.19C134.448 21.0215 134.684 21.2296 134.684 21.5002V22.1454C134.684 22.3952 134.469 22.6241 134.19 22.6241H129.379V34.4668C129.379 34.7165 129.164 34.9455 128.885 34.9455H127.897C127.64 34.9247 127.425 34.7165 127.425 34.4668Z" fill="#EFEDE8"/>
<path d="M94.4141 29.6177V23.1239C94.4141 22.6036 94.6933 22.1249 95.1443 21.8335L95.8531 21.3756C96.0679 21.23 96.3686 21.3965 96.3686 21.6462V29.6385C96.3686 32.2817 97.7216 33.593 100.213 33.593C102.704 33.593 104.1 32.2817 104.1 29.6593V23.1031C104.1 22.5828 104.358 22.1041 104.809 21.8127L105.496 21.3756C105.711 21.23 106.012 21.3965 106.012 21.6462V29.6177C106.012 33.6762 103.413 35.1956 100.192 35.1956C96.9699 35.1956 94.4141 33.6762 94.4141 29.6177Z" fill="#EFEDE8"/>
<path d="M136.381 29.6177V23.1239C136.381 22.6036 136.66 22.1249 137.111 21.8335L137.82 21.3756C138.035 21.23 138.335 21.3965 138.335 21.6462V29.6385C138.335 32.2817 139.688 33.593 142.18 33.593C144.693 33.593 146.067 32.2817 146.067 29.6593V23.1031C146.067 22.5828 146.325 22.1041 146.776 21.8127L147.463 21.3756C147.678 21.23 147.979 21.3965 147.979 21.6462V29.6177C147.979 33.6762 145.38 35.1956 142.158 35.1956C138.937 35.1956 136.381 33.6762 136.381 29.6177Z" fill="#EFEDE8"/>
<path d="M36.7477 6.95167V23.1443C36.7477 24.1642 36.4255 25.1632 35.8242 25.9957C35.6738 26.2038 35.4161 26.2871 35.1798 26.2038C34.9436 26.1206 34.7718 25.9125 34.7718 25.6627V8.22127C34.7718 8.1172 34.6859 8.01314 34.557 8.01314H23.3673C23.2599 8.01314 23.1525 8.09639 23.1525 8.22127V26.2663C23.1525 31.6361 24.8707 35.5906 28.2856 38.0673C28.6293 38.3171 28.4145 38.8374 27.9849 38.7958C27.6843 38.775 27.3621 38.7334 27.0399 38.6917C26.2238 38.5877 25.4721 38.213 24.9352 37.6095C22.4653 34.7997 21.1766 30.9492 21.1766 26.2663V6.95167C21.1766 6.49378 21.5632 6.11914 22.0357 6.11914H35.8671C36.3611 6.11914 36.7477 6.49378 36.7477 6.95167Z" fill="#EFEDE8"/>
<path d="M17.3751 41.9597C16.8597 42.3552 16.0865 42.5633 15.0985 42.5633C15.0126 42.5633 14.9052 42.5633 14.7979 42.5633C10.889 42.4176 5.32637 39.8992 2.34102 34.7167C0.0644317 30.783 0 26.891 0 26.4539V7.03523C0 6.5149 0.429546 6.09863 0.966478 6.09863H11.4689C11.5548 6.09863 11.6192 6.11945 11.6836 6.14026C11.791 6.18189 11.8769 6.28595 11.9414 6.39002C12.0273 6.57734 11.9843 6.78547 11.834 6.91035L11.1252 7.61799L11.1038 7.63881C10.846 7.86775 10.5239 7.99263 10.1588 7.99263H2.19068C2.0833 7.99263 1.97591 8.07588 1.97591 8.20076V26.4331C1.97591 26.4539 2.06182 30.0962 4.08069 33.801C7.62444 40.3155 14.9052 40.9191 17.0315 40.9607C17.2677 40.9607 17.4825 41.1064 17.5469 41.3353C17.6329 41.5643 17.5684 41.814 17.3751 41.9597Z" fill="#EFEDE8"/>
<path d="M40.5491 41.9597C41.0646 42.3552 41.8378 42.5633 42.8257 42.5633C42.9116 42.5633 43.019 42.5633 43.1264 42.5633C47.0353 42.4176 52.5979 39.8992 55.5832 34.7167C57.8383 30.8039 57.9028 26.9118 57.9028 26.4747V7.03523C57.9028 6.5149 57.4732 6.09863 56.9363 6.09863H46.4339C46.348 6.09863 46.2836 6.11945 46.2191 6.14026C46.1117 6.18189 46.0258 6.28595 45.9614 6.39002C45.8755 6.57734 45.9184 6.78547 46.0688 6.91035L46.7775 7.61799L46.799 7.63881C47.0567 7.86775 47.3789 7.99263 47.744 7.99263H55.7121C55.8195 7.99263 55.9269 8.07588 55.9269 8.20076V26.4331C55.9269 26.4539 55.841 30.0962 53.8221 33.801C50.2783 40.3155 42.9975 40.9191 40.8713 40.9607C40.635 40.9607 40.4203 41.1064 40.3558 41.3353C40.2914 41.5643 40.3558 41.814 40.5491 41.9597Z" fill="#EFEDE8"/>
<path d="M0.536931 0.978219C0.365112 0.811713 0.322158 0.582769 0.408067 0.353824C0.515453 0.145692 0.730226 0 0.966476 0H56.9792C57.2155 0 57.4303 0.145692 57.5162 0.353824C57.6021 0.561955 57.5591 0.811713 57.3873 0.978219L56.9148 1.4153C56.5926 1.72749 56.1416 1.91481 55.6906 1.91481H2.23364C1.76114 1.91481 1.33159 1.74831 0.987954 1.4153L0.536931 0.978219ZM44.3291 6.99322L43.5774 6.26476C43.4486 6.13988 43.2338 6.09826 43.062 6.1607C42.8901 6.22314 42.7613 6.38964 42.7613 6.57696V27.6399C42.7613 27.8688 42.7613 28.1186 42.7398 28.3475C42.3747 35.4656 36.3396 41.0436 28.9729 41.0852C21.6061 41.0436 15.571 35.4656 15.2059 28.3475C15.1844 28.1186 15.1844 27.8688 15.1844 27.6399V6.57696C15.1844 6.38964 15.0771 6.22314 14.8838 6.1607C14.7119 6.07744 14.4972 6.13988 14.3683 6.26476L13.6166 6.99322C13.3589 7.24298 13.2085 7.59681 13.2085 7.97144V27.6399C13.2085 36.09 20.2531 42.9584 28.9729 43.0208C37.6926 42.9584 44.7372 36.09 44.7372 27.6399V7.95063C44.7372 7.59681 44.5868 7.24298 44.3291 6.99322Z" fill="#EFEDE8"/>
</g>
<defs>
<clipPath id="clip0_18_8">
<rect width="148" height="43" fill="white"/>
</clipPath>
</defs>
</svg>
